<svg width="79" height="72" viewBox="0 0 79 72" fill="none" xmlns="http://www.w3.org/2000/svg">
<rect x="1" width="77" height="72" rx="10" fill="#FFCDE5"/>
<mask id="path-2-inside-1_20_24" fill="white">
<path d="M46.314 6.22829C61.1509 6.90665 73.2402 11.2883 73.3166 16.015C73.3298 16.8357 72.9795 17.612 72.3148 18.3324C68.5296 14.8639 58.5825 12.0522 46.9443 11.5201C34.6832 10.9596 24.3825 13.103 21.2186 16.5319C20.1791 15.5789 19.604 14.5771 19.5875 13.5585C19.5114 8.83177 31.4772 5.54995 46.314 6.22829Z"/>
</mask>
<path d="M46.314 6.22829C61.1509 6.90665 73.2402 11.2883 73.3166 16.015C73.3298 16.8357 72.9795 17.612 72.3148 18.3324C68.5296 14.8639 58.5825 12.0522 46.9443 11.5201C34.6832 10.9596 24.3825 13.103 21.2186 16.5319C20.1791 15.5789 19.604 14.5771 19.5875 13.5585C19.5114 8.83177 31.4772 5.54995 46.314 6.22829Z" fill="#6D0951"/>
<path d="M46.314 6.22829L46.3011 5.42839L46.3011 5.42839L46.314 6.22829ZM73.3166 16.015L74.1157 16.0516L74.1157 16.0516L73.3166 16.015ZM72.3148 18.3324L71.7955 18.9079L72.3968 19.4589L72.9169 18.8952L72.3148 18.3324ZM46.9443 11.5201L46.9314 10.7202L46.9314 10.7202L46.9443 11.5201ZM21.2186 16.5319L20.6993 17.1072L21.3006 17.6585L21.8208 17.0947L21.2186 16.5319ZM19.5875 13.5585L18.7884 13.5219L18.7884 13.5219L19.5875 13.5585ZM46.314 6.22829L46.3269 7.02818C53.6863 7.36467 60.3322 8.61925 65.1204 10.3547C67.5191 11.224 69.4066 12.1981 70.6814 13.2043C71.97 14.2214 72.5042 15.1632 72.5174 15.9785L73.3166 16.015L74.1157 16.0516C74.0907 14.5035 73.0852 13.125 71.6219 11.97C70.1448 10.8041 68.0683 9.75406 65.5806 8.85239C60.5957 7.0457 53.7785 5.77027 46.3011 5.42839L46.314 6.22829ZM73.3166 16.015L72.5174 15.9785C72.5266 16.5463 72.2886 17.1454 71.7126 17.7696L72.3148 18.3324L72.9169 18.8952C73.6704 18.0787 74.1331 17.125 74.1157 16.0516L73.3166 16.015ZM72.3148 18.3324L72.834 17.757C70.785 15.8793 67.1891 14.2658 62.7392 13.0533C58.2576 11.832 52.8008 10.9886 46.9314 10.7202L46.9443 11.5201L46.9572 12.32C52.726 12.5838 58.0619 13.4122 62.4097 14.5969C66.7892 15.7903 70.0594 17.317 71.7955 18.9079L72.3148 18.3324ZM46.9443 11.5201L46.9314 10.7202C40.7485 10.4375 35.0435 10.8355 30.4685 11.7441C25.941 12.6433 22.3674 14.0715 20.6165 15.9691L21.2186 16.5319L21.8208 17.0947C23.2337 15.5634 26.3924 14.2054 30.8715 13.3158C35.3031 12.4356 40.879 12.0421 46.9572 12.32L46.9443 11.5201ZM21.2186 16.5319L21.738 15.9566C20.7935 15.0907 20.398 14.2974 20.3867 13.595L19.5875 13.5585L18.7884 13.5219C18.8099 14.8568 19.5647 16.0671 20.6993 17.1072L21.2186 16.5319ZM19.5875 13.5585L20.3867 13.595C20.3736 12.7797 20.8782 11.8854 22.1358 10.9848C23.38 10.0937 25.2389 9.29095 27.6131 8.63979C32.3523 7.33998 38.9675 6.69171 46.3269 7.02818L46.314 6.22829L46.3011 5.42839C38.8237 5.08653 32.0376 5.73999 27.1037 7.09319C24.6414 7.76853 22.5958 8.63008 21.1542 9.66254C19.726 10.6854 18.7634 11.9739 18.7884 13.5219L19.5875 13.5585Z" fill="#F0D6E5" mask="url(#path-2-inside-1_20_24)"/>
<mask id="path-4-inside-2_20_24" fill="white">
<path d="M32.2081 63.9106C47.045 64.589 59.0107 61.3072 58.9345 56.5805C58.9213 55.76 58.5461 54.9502 57.8574 54.168C54.179 57.2956 44.3072 59.2008 32.6684 58.6687C20.4074 58.108 10.0221 55.0188 6.74296 51.2953C5.73266 52.1546 5.18905 53.1053 5.20548 54.1239C5.28183 58.8506 17.3713 63.2323 32.2081 63.9106Z"/>
</mask>
<path d="M32.2081 63.9106C47.045 64.589 59.0107 61.3072 58.9345 56.5805C58.9213 55.76 58.5461 54.9502 57.8574 54.168C54.179 57.2956 44.3072 59.2008 32.6684 58.6687C20.4074 58.108 10.0221 55.0188 6.74296 51.2953C5.73266 52.1546 5.18905 53.1053 5.20548 54.1239C5.28183 58.8506 17.3713 63.2323 32.2081 63.9106Z" fill="#6D0951"/>
<path d="M32.2081 63.9106L32.221 64.7105L32.221 64.7105L32.2081 63.9106ZM58.9345 56.5805L59.7337 56.617L59.7337 56.617L58.9345 56.5805ZM57.8574 54.168L57.3187 53.5443L57.9032 53.0473L58.4423 53.6596L57.8574 54.168ZM32.6684 58.6687L32.6813 59.4686L32.6813 59.4686L32.6684 58.6687ZM6.74296 51.2953L6.20423 50.6716L6.78865 50.1746L7.32785 50.7868L6.74296 51.2953ZM5.20548 54.1239L4.40632 54.0874L4.40632 54.0874L5.20548 54.1239ZM32.2081 63.9106L32.1952 63.1107C39.5546 63.4472 46.1698 62.799 50.909 61.4992C53.2832 60.848 55.142 60.0452 56.3862 59.1542C57.6438 58.2535 58.1485 57.3592 58.1353 56.5439L58.9345 56.5805L59.7337 56.617C59.7586 58.1651 58.7961 59.4536 57.3679 60.4764C55.9263 61.5089 53.8807 62.3704 51.4184 63.0458C46.4845 64.399 39.6984 65.0524 32.221 64.7105L32.2081 63.9106ZM58.9345 56.5805L58.1353 56.5439C58.1262 55.9758 57.8688 55.3538 57.2725 54.6765L57.8574 54.168L58.4423 53.6596C59.2233 54.5465 59.7164 55.5442 59.7337 56.617L58.9345 56.5805ZM57.8574 54.168L58.396 54.7918C56.4047 56.4849 52.8555 57.7717 48.4379 58.5788C43.9889 59.3917 38.551 59.737 32.6813 59.4686L32.6684 58.6687L32.6555 57.8688C38.4246 58.1326 43.742 57.7913 48.0581 57.0027C52.4058 56.2083 55.6317 54.9787 57.3187 53.5443L57.8574 54.168ZM32.6684 58.6687L32.6813 59.4686C26.4985 59.1859 20.7722 58.2653 16.1611 56.9367C11.5979 55.6218 7.97283 53.8645 6.15807 51.8038L6.74296 51.2953L7.32785 50.7868C8.79226 52.4497 11.9994 54.0987 16.5139 55.3995C20.9805 56.6865 26.5773 57.5909 32.6555 57.8688L32.6684 58.6687ZM6.74296 51.2953L7.28168 51.9191C6.36373 52.6998 5.99331 53.4581 6.00465 54.1604L5.20548 54.1239L4.40632 54.0874C4.38478 52.7525 5.10158 51.6094 6.20423 50.6716L6.74296 51.2953ZM5.20548 54.1239L6.00465 54.1604C6.01782 54.9757 6.55208 55.9175 7.84063 56.9346C9.11544 57.9408 11.003 58.9149 13.4017 59.7843C18.1899 61.5197 24.8357 62.7743 32.1952 63.1107L32.2081 63.9106L32.221 64.7105C24.7436 64.3686 17.9264 63.0932 12.9415 61.2865C10.4537 60.3849 8.37729 59.3348 6.90021 58.1689C5.43687 57.0139 4.43132 55.6354 4.40632 54.0874L5.20548 54.1239Z" fill="#F0D6E5" mask="url(#path-4-inside-2_20_24)"/>
<mask id="path-6-inside-3_20_24" fill="white">
<path d="M7.7914 26.5158C12.0944 17.5442 17.3001 12.7875 19.4184 15.8917C19.7861 16.4306 20.0357 17.1715 20.1761 18.0741C17.6157 18.165 13.685 22.608 10.3097 29.6453C6.75371 37.0596 4.92667 45.032 5.59524 49.3285C4.89194 49.3532 4.2921 49.05 3.83558 48.3812C1.71724 45.277 3.48836 35.4874 7.7914 26.5158Z"/>
</mask>
<path d="M7.7914 26.5158C12.0944 17.5442 17.3001 12.7875 19.4184 15.8917C19.7861 16.4306 20.0357 17.1715 20.1761 18.0741C17.6157 18.165 13.685 22.608 10.3097 29.6453C6.75371 37.0596 4.92667 45.032 5.59524 49.3285C4.89194 49.3532 4.2921 49.05 3.83558 48.3812C1.71724 45.277 3.48836 35.4874 7.7914 26.5158Z" fill="#6D0951"/>
<path d="M7.7914 26.5158L7.34047 25.855L7.34047 25.855L7.7914 26.5158ZM19.4184 15.8917L19.7644 15.1705L19.7644 15.1704L19.4184 15.8917ZM20.1761 18.0741L20.2372 19.0521L20.7243 17.8995L20.1761 18.0741ZM10.3097 29.6453L9.85878 28.9845L9.85877 28.9845L10.3097 29.6453ZM5.59524 49.3285L5.65623 50.3065L6.14351 49.1538L5.59524 49.3285ZM3.83558 48.3812L3.48962 49.1025L3.48967 49.1026L3.83558 48.3812ZM7.7914 26.5158L8.24234 27.1766C10.3631 22.7549 12.6916 19.4052 14.7238 17.5484C15.7417 16.6182 16.6587 16.0871 17.419 15.9538C18.1799 15.8204 18.7168 16.0919 19.0724 16.613L19.4184 15.8917L19.7644 15.1704C19.0608 14.1394 18.1526 13.8414 17.2072 14.0072C16.2612 14.173 15.2107 14.8098 14.1245 15.8023C11.9486 17.7906 9.52273 21.3051 7.34047 25.855L7.7914 26.5158ZM19.4184 15.8917L19.0724 16.6129C19.3209 16.9773 19.5125 17.5076 19.6278 18.2486L20.1761 18.0741L20.7243 17.8995C20.5588 16.8354 20.2512 15.884 19.7644 15.1705L19.4184 15.8917ZM20.1761 18.0741L20.115 17.096C18.6805 17.1469 16.957 18.3933 15.2033 20.4288C13.4335 22.483 11.5724 25.4117 9.85878 28.9845L10.3097 29.6453L10.7606 30.3061C12.4223 26.8416 14.2142 24.0301 15.8936 22.0808C17.5892 20.1127 19.1113 19.0921 20.2372 19.0521L20.1761 18.0741ZM10.3097 29.6453L9.85877 28.9845C8.05371 32.7481 6.67918 36.6695 5.83905 40.2213C5.0097 43.7276 4.66283 47.0345 5.04697 49.5031L5.59524 49.3285L6.14351 49.1538C5.85908 47.326 6.09145 44.4985 6.89747 41.0908C7.69271 37.7288 9.00971 33.9568 10.7606 30.3061L10.3097 29.6453ZM5.59524 49.3285L5.53425 48.3504C4.92828 48.3717 4.48878 48.11 4.18149 47.6598L3.83558 48.3812L3.48967 49.1026C4.09543 49.9901 4.85559 50.3347 5.65623 50.3065L5.59524 49.3285ZM3.83558 48.3812L4.18155 47.6599C3.82595 47.1388 3.5793 46.2621 3.52167 44.9292C3.46409 43.5973 3.60323 41.9264 3.94956 40.0121C4.64096 36.1905 6.12156 31.5983 8.24234 27.1766L7.7914 26.5158L7.34047 25.855C5.15821 30.4049 3.60172 35.1933 2.86139 39.2855C2.49185 41.328 2.31646 43.2473 2.38811 44.9043C2.45971 46.5604 2.78604 48.0715 3.48962 49.1025L3.83558 48.3812Z" fill="#F0D6E5" mask="url(#path-6-inside-3_20_24)"/>
<mask id="path-8-inside-4_20_24" fill="white">
<path d="M71.2692 44.0628C67.2041 53.3689 62.1343 58.5215 59.9455 55.5713C59.5657 55.0593 59.2984 54.3366 59.136 53.4437C61.6857 53.161 65.4926 48.4173 68.6812 41.1177C72.0406 33.4273 73.6622 25.3069 72.8887 21.0542C73.5893 20.9767 74.1948 21.235 74.6666 21.8709C76.8554 24.8211 75.3343 34.7567 71.2692 44.0628Z"/>
</mask>
<path d="M71.2692 44.0628C67.2041 53.3689 62.1343 58.5215 59.9455 55.5713C59.5657 55.0593 59.2984 54.3366 59.136 53.4437C61.6857 53.161 65.4926 48.4173 68.6812 41.1177C72.0406 33.4273 73.6622 25.3069 72.8887 21.0542C73.5893 20.9767 74.1948 21.235 74.6666 21.8709C76.8554 24.8211 75.3343 34.7567 71.2692 44.0628Z" fill="#6D0951"/>
<path d="M71.2692 44.0628L71.7459 44.7053V44.7053L71.2692 44.0628ZM59.9455 55.5713L59.6252 56.3043L59.6253 56.3044L59.9455 55.5713ZM59.136 53.4437L59.0263 52.4709L58.5889 53.6188L59.136 53.4437ZM68.6812 41.1177L69.1579 41.7602L69.1579 41.7602L68.6812 41.1177ZM72.8887 21.0542L72.7791 20.0814L72.3416 21.2292L72.8887 21.0542ZM74.6666 21.8709L74.9868 21.1377L74.9868 21.1377L74.6666 21.8709ZM71.2692 44.0628L70.7925 43.4203C68.7871 48.0112 66.5471 51.5446 64.5644 53.5596C63.571 54.5692 62.6683 55.1709 61.9125 55.3616C61.154 55.553 60.6207 55.3166 60.2657 54.8382L59.9455 55.5713L59.6253 56.3044C60.3647 57.301 61.2859 57.527 62.2207 57.2911C63.1581 57.0546 64.1873 56.3397 65.2431 55.2667C67.3588 53.1165 69.6862 49.4205 71.7459 44.7053L71.2692 44.0628ZM59.9455 55.5713L60.2658 54.8382C60.0177 54.5038 59.8161 53.9995 59.6831 53.2685L59.136 53.4437L58.5889 53.6188C58.7808 54.6737 59.1136 55.6147 59.6252 56.3043L59.9455 55.5713ZM59.136 53.4437L59.2457 54.4165C60.6725 54.2583 62.356 52.8837 64.0503 50.7176C65.7607 48.531 67.5406 45.4626 69.1579 41.7602L68.6812 41.1177L68.2046 40.4753C66.6333 44.0724 64.9154 47.0256 63.2877 49.1065C61.644 51.2078 60.1491 52.3464 59.0263 52.4709L59.136 53.4437ZM68.6812 41.1177L69.1579 41.7602C70.8615 37.8601 72.132 33.835 72.8796 30.2206C73.6172 26.6542 73.8803 23.3228 73.4359 20.8792L72.8887 21.0542L72.3416 21.2292C72.6706 23.0383 72.5096 25.8934 71.79 29.373C71.0802 32.8045 69.8603 36.6849 68.2046 40.4753L68.6812 41.1177ZM72.8887 21.0542L72.9983 22.027C73.6034 21.9601 74.0398 22.1909 74.3464 22.604L74.6666 21.8709L74.9868 21.1377C74.3498 20.2792 73.5752 19.9934 72.7791 20.0814L72.8887 21.0542ZM74.6666 21.8709L74.3464 22.604C74.7014 23.0824 74.9693 23.9261 75.0604 25.2625C75.1512 26.5943 75.054 28.2817 74.756 30.2286C74.1611 34.1142 72.7979 38.8294 70.7925 43.4203L71.2692 44.0628L71.7459 44.7053C73.8056 39.9901 75.2355 35.0845 75.8703 30.9382C76.1871 28.8691 76.3138 26.9378 76.2012 25.2861C76.089 23.639 75.7263 22.1344 74.9868 21.1377L74.6666 21.8709Z" fill="#F0D6E5" mask="url(#path-8-inside-4_20_24)"/>
<mask id="path-10-inside-5_20_24" fill="white">
<path d="M44.7068 16.3258C54.3269 16.7656 62.174 20.0917 62.2331 23.7541C62.2432 24.3898 62.0169 24.9931 61.5876 25.5551C59.1265 22.8892 52.6726 20.7675 45.1267 20.4225C37.1765 20.059 30.5029 21.7804 28.459 24.456C27.7831 23.7237 27.4083 22.9505 27.3955 22.1613C27.3364 18.4989 35.0869 15.886 44.7068 16.3258Z"/>
</mask>
<path d="M44.7068 16.3258C54.3269 16.7656 62.174 20.0917 62.2331 23.7541C62.2432 24.3898 62.0169 24.9931 61.5876 25.5551C59.1265 22.8892 52.6726 20.7675 45.1267 20.4225C37.1765 20.059 30.5029 21.7804 28.459 24.456C27.7831 23.7237 27.4083 22.9505 27.3955 22.1613C27.3364 18.4989 35.0869 15.886 44.7068 16.3258Z" fill="#6D0951"/>
<path d="M44.7068 16.3258L44.6939 15.5259L44.6939 15.5259L44.7068 16.3258ZM62.2331 23.7541L63.0322 23.7908L63.0322 23.7907L62.2331 23.7541ZM61.5876 25.5551L61.0164 26.0788L62.2333 26.066L61.5876 25.5551ZM45.1267 20.4225L45.1138 19.6226V19.6226L45.1267 20.4225ZM28.459 24.456L27.8877 24.9797L29.1047 24.9669L28.459 24.456ZM27.3955 22.1613L26.5963 22.1248L26.5963 22.1249L27.3955 22.1613ZM44.7068 16.3258L44.7197 17.1256C49.4582 17.3423 53.7241 18.2695 56.7832 19.5661C58.3156 20.2156 59.5038 20.9404 60.2977 21.6805C61.0919 22.4209 61.4241 23.1084 61.4339 23.7176L62.2331 23.7541L63.0322 23.7907C63.0125 22.5686 62.3417 21.4669 61.3473 20.5399C60.3526 19.6126 58.9667 18.7916 57.3274 18.0968C54.0431 16.7048 49.5755 15.7491 44.6939 15.5259L44.7068 16.3258ZM62.2331 23.7541L61.4339 23.7175C61.4407 24.1434 61.2923 24.5855 60.9419 25.0441L61.5876 25.5551L62.2333 26.066C62.7416 25.4007 63.0457 24.6363 63.0322 23.7908L62.2331 23.7541ZM61.5876 25.5551L62.1587 25.0313C60.7752 23.5327 58.3761 22.279 55.4612 21.3562C52.5189 20.4247 48.9472 19.7978 45.1138 19.6226L45.1267 20.4225L45.1396 21.2224C48.8521 21.3921 52.2804 21.9986 55.0666 22.8807C57.8804 23.7715 59.9388 24.9115 61.0164 26.0788L61.5876 25.5551ZM45.1267 20.4225L45.1138 19.6226C41.0757 19.4379 37.3433 19.7814 34.3424 20.5213C31.3809 21.2515 28.992 22.4019 27.8132 23.9451L28.459 24.456L29.1047 24.9669C29.9698 23.8345 31.9397 22.7864 34.8136 22.0778C37.648 21.379 41.2275 21.0435 45.1396 21.2224L45.1267 20.4225ZM28.459 24.456L29.0302 23.9324C28.4509 23.3046 28.2032 22.7241 28.1946 22.1977L27.3955 22.1613L26.5963 22.1249C26.6135 23.1768 27.1154 24.1427 27.8877 24.9797L28.459 24.456ZM27.3955 22.1613L28.1946 22.1978C28.1848 21.5886 28.4953 20.9306 29.2666 20.2618C30.0377 19.5932 31.2042 18.9761 32.7177 18.4658C35.7392 17.4473 39.9813 16.909 44.7197 17.1256L44.7068 16.3258L44.6939 15.5259C39.8123 15.3027 35.3692 15.8511 32.1253 16.9446C30.5061 17.4904 29.1447 18.1857 28.1786 19.0234C27.2128 19.8608 26.5766 20.9028 26.5963 22.1248L27.3955 22.1613Z" fill="#F0D6E5" mask="url(#path-10-inside-5_20_24)"/>
<mask id="path-12-inside-6_20_24" fill="white">
<path d="M34.0774 55.2474C43.6974 55.6872 51.4487 53.0732 51.3896 49.409C51.3793 48.7729 51.1331 48.1477 50.685 47.5453C48.3063 49.9911 41.9115 51.5261 34.3656 51.1811C26.4155 50.8176 19.6764 48.4822 17.5429 45.6144C16.8898 46.2863 16.5393 47.0266 16.552 47.8161C16.6111 51.4803 24.4574 54.8075 34.0774 55.2474Z"/>
</mask>
<path d="M34.0774 55.2474C43.6974 55.6872 51.4487 53.0732 51.3896 49.409C51.3793 48.7729 51.1331 48.1477 50.685 47.5453C48.3063 49.9911 41.9115 51.5261 34.3656 51.1811C26.4155 50.8176 19.6764 48.4822 17.5429 45.6144C16.8898 46.2863 16.5393 47.0266 16.552 47.8161C16.6111 51.4803 24.4574 54.8075 34.0774 55.2474Z" fill="#6D0951"/>
<path d="M34.0774 55.2474L34.0903 56.0473L34.0903 56.0473L34.0774 55.2474ZM51.3896 49.409L52.1888 49.4454L52.1888 49.4455L51.3896 49.409ZM50.685 47.5453L50.0959 46.9686L51.3152 47.0929L50.685 47.5453ZM34.3656 51.1811L34.3785 51.981V51.981L34.3656 51.1811ZM17.5429 45.6144L16.9538 45.0378L18.1732 45.1619L17.5429 45.6144ZM16.552 47.8161L15.7528 47.7796L15.7528 47.7795L16.552 47.8161ZM34.0774 55.2474L34.0644 54.4475C38.8029 54.6641 43.0452 54.1257 46.0669 53.1066C47.5805 52.5961 48.7471 51.9787 49.5182 51.3098C50.2896 50.6407 50.6003 49.9822 50.5904 49.3724L51.3896 49.409L52.1888 49.4455C52.2085 50.6678 51.5724 51.7102 50.6064 52.548C49.6402 53.386 48.2788 54.0817 46.6595 54.6278C43.4153 55.7219 38.9719 56.2705 34.0903 56.0473L34.0774 55.2474ZM51.3896 49.409L50.5904 49.3725C50.5835 48.9462 50.4205 48.4895 50.0547 47.9978L50.685 47.5453L51.3152 47.0929C51.8458 47.8059 52.175 48.5996 52.1888 49.4454L51.3896 49.409ZM50.685 47.5453L51.274 48.122C49.9369 49.4968 47.5747 50.5334 44.6853 51.1912C41.7686 51.8552 38.2119 52.1563 34.3785 51.981L34.3656 51.1811L34.3527 50.3812C38.0651 50.551 41.4788 50.2571 44.2407 49.6283C47.0298 48.9934 49.0544 48.0396 50.0959 46.9686L50.685 47.5453ZM34.3656 51.1811L34.3785 51.981C30.3405 51.7964 26.5915 51.1107 23.5622 50.0947C20.5726 49.0921 18.1431 47.7208 16.9126 46.0668L17.5429 45.6144L18.1732 45.1619C19.0763 46.3758 21.083 47.6061 23.9839 48.579C26.8451 49.5386 30.4407 50.2024 34.3527 50.3812L34.3656 51.1811ZM17.5429 45.6144L18.1321 46.1909C17.5721 46.7671 17.3427 47.3259 17.3511 47.8527L16.552 47.8161L15.7528 47.7795C15.7359 46.7272 16.2075 45.8056 16.9538 45.0378L17.5429 45.6144ZM16.552 47.8161L17.3511 47.8527C17.361 48.4625 17.6933 49.1504 18.4874 49.891C19.2812 50.6315 20.4693 51.3565 22.0016 52.0063C25.0604 53.3033 29.3261 54.2308 34.0645 54.4475L34.0774 55.2474L34.0903 56.0473C29.2087 55.8241 24.7413 54.868 21.4572 53.4754C19.8179 52.7804 18.4321 51.9591 17.4375 51.0314C16.4432 50.1039 15.7725 49.0019 15.7528 47.7796L16.552 47.8161Z" fill="#F0D6E5" mask="url(#path-12-inside-6_20_24)"/>
<mask id="path-14-inside-7_20_24" fill="white">
<path d="M17.753 28.5643C20.8514 23.2402 24.788 21.4065 26.5454 24.4693C26.8502 25.0005 27.0665 25.6458 27.2045 26.3746C25.1991 25.5793 22.2546 27.6066 19.825 31.7812C17.2641 36.1818 16.0785 41.5888 16.7362 45.0619C16.1845 44.8428 15.7039 44.4103 15.3248 43.7495C13.5675 40.6868 14.6547 33.8883 17.753 28.5643Z"/>
</mask>
<path d="M17.753 28.5643C20.8514 23.2402 24.788 21.4065 26.5454 24.4693C26.8502 25.0005 27.0665 25.6458 27.2045 26.3746C25.1991 25.5793 22.2546 27.6066 19.825 31.7812C17.2641 36.1818 16.0785 41.5888 16.7362 45.0619C16.1845 44.8428 15.7039 44.4103 15.3248 43.7495C13.5675 40.6868 14.6547 33.8883 17.753 28.5643Z" fill="#6D0951"/>
<path d="M17.753 28.5643L17.3548 27.8704L17.3548 27.8704L17.753 28.5643ZM26.5454 24.4693L26.9478 23.7779L26.9478 23.7779L26.5454 24.4693ZM27.2045 26.3746L27.0762 27.3295L27.7425 26.0667L27.2045 26.3746ZM19.825 31.7812L19.4269 31.0873L19.4269 31.0873L19.825 31.7812ZM16.7362 45.0619L16.6078 46.0167L17.2742 44.7539L16.7362 45.0619ZM15.3248 43.7495L14.9224 44.441L14.9224 44.441L15.3248 43.7495ZM17.753 28.5643L18.1511 29.2582C19.6431 26.6945 21.3179 25.0066 22.7974 24.3176C24.2944 23.6203 25.4682 23.9847 26.143 25.1607L26.5454 24.4693L26.9478 23.7779C25.8652 21.8911 24.1921 21.6409 22.5068 22.4259C20.804 23.2189 18.9613 25.11 17.3548 27.8704L17.753 28.5643ZM26.5454 24.4693L26.143 25.1607C26.379 25.5721 26.5526 26.0811 26.6665 26.6826L27.2045 26.3746L27.7425 26.0667C27.5804 25.2106 27.3213 24.429 26.9478 23.7779L26.5454 24.4693ZM27.2045 26.3746L27.3328 25.4198C26.1775 24.9616 24.8151 25.3328 23.4579 26.31C22.0927 27.293 20.6886 28.9194 19.4269 31.0873L19.825 31.7812L20.2232 32.4751C21.391 30.4684 22.6739 28.9938 23.8897 28.1184C25.1135 27.2372 26.2261 26.9924 27.0762 27.3295L27.2045 26.3746ZM19.825 31.7812L19.4269 31.0873C18.0973 33.372 17.1137 35.9356 16.5474 38.4116C15.9852 40.8696 15.8136 43.3386 16.1982 45.3699L16.7362 45.0619L17.2742 44.7539C17.0012 43.3121 17.0935 41.341 17.5999 39.1271C18.1021 36.9311 18.9918 34.5909 20.2232 32.4751L19.825 31.7812ZM16.7362 45.0619L16.8647 44.1071C16.4032 43.9239 16.0219 43.5718 15.7271 43.0581L15.3248 43.7495L14.9224 44.441C15.3859 45.2488 15.9659 45.7618 16.6078 46.0167L16.7362 45.0619ZM15.3248 43.7495L15.7272 43.0581C15.0524 41.8821 14.8501 39.8483 15.2635 37.263C15.6721 34.7079 16.6592 31.8218 18.1511 29.2581L17.753 28.5643L17.3548 27.8704C15.7484 30.6308 14.6428 33.8059 14.1725 36.7467C13.7071 39.6574 13.8398 42.5542 14.9224 44.441L15.3248 43.7495Z" fill="#F0D6E5" mask="url(#path-14-inside-7_20_24)"/>
<mask id="path-16-inside-8_20_24" fill="white">
<path d="M62.7268 43.5294C60.091 49.5632 56.3607 52.3074 54.3947 49.6579C54.0537 49.1982 53.7904 48.6047 53.5982 47.9089C55.6326 48.2377 58.3728 45.5307 60.4396 40.7993C62.6179 35.8125 63.365 30.1396 62.4495 26.8249C63.0092 26.9156 63.5156 27.2352 63.9397 27.8069C65.9055 30.4568 65.3623 37.4956 62.7268 43.5294Z"/>
</mask>
<path d="M62.7268 43.5294C60.091 49.5632 56.3607 52.3074 54.3947 49.6579C54.0537 49.1982 53.7904 48.6047 53.5982 47.9089C55.6326 48.2377 58.3728 45.5307 60.4396 40.7993C62.6179 35.8125 63.365 30.1396 62.4495 26.8249C63.0092 26.9156 63.5156 27.2352 63.9397 27.8069C65.9055 30.4568 65.3623 37.4956 62.7268 43.5294Z" fill="#6D0951"/>
<path d="M62.7268 43.5294L63.2034 44.1718L63.2034 44.1718L62.7268 43.5294ZM54.3947 49.6579L54.0745 50.391L54.0745 50.391L54.3947 49.6579ZM53.5982 47.9089L53.5794 46.9385L53.0835 48.2261L53.5982 47.9089ZM60.4396 40.7993L60.9163 41.4418L60.9163 41.4417L60.4396 40.7993ZM62.4495 26.8249L62.4309 25.8545L61.9348 27.1419L62.4495 26.8249ZM63.9397 27.8069L64.26 27.0738L64.26 27.0738L63.9397 27.8069ZM62.7268 43.5294L62.2501 42.8869C60.9712 45.8145 59.4417 47.9064 58.0269 48.9471C56.5789 50.0121 55.4206 49.8758 54.7149 48.9247L54.3947 49.6579L54.0745 50.391C55.3348 52.0895 57.0247 51.9058 58.5923 50.7527C60.1931 49.5752 61.8465 47.2781 63.2034 44.1718L62.7268 43.5294ZM54.3947 49.6579L54.715 48.9247C54.4684 48.5924 54.2673 48.1506 54.1129 47.5918L53.5982 47.9089L53.0835 48.2261C53.3135 49.0587 53.6389 49.8039 54.0745 50.391L54.3947 49.6579ZM53.5982 47.9089L53.617 48.8793C54.7958 49.0698 56.1011 48.3807 57.3476 47.1037C58.6045 45.816 59.8506 43.8815 60.9163 41.4418L60.4396 40.7993L59.963 40.1568C58.9619 42.4484 57.8045 44.2332 56.666 45.3996C55.517 46.5767 54.4351 47.0768 53.5794 46.9385L53.5982 47.9089ZM60.4396 40.7993L60.9163 41.4417C62.0393 38.8709 62.8021 36.1047 63.1644 33.5225C63.5229 30.968 63.5057 28.4684 62.9642 26.5078L62.4495 26.8249L61.9348 27.1419C62.3088 28.4961 62.3758 30.4903 62.045 32.8477C61.7181 35.1773 61.0182 37.7409 59.9629 40.1568L60.4396 40.7993ZM62.4495 26.8249L62.4681 27.7952C62.9297 27.87 63.3123 28.126 63.6195 28.54L63.9397 27.8069L64.26 27.0738C63.7188 26.3444 63.0887 25.9611 62.4309 25.8545L62.4495 26.8249ZM63.9397 27.8069L63.6194 28.54C64.3251 29.4912 64.6999 31.421 64.4891 34.1532C64.2831 36.8229 63.5288 39.9594 62.2501 42.8869L62.7268 43.5294L63.2034 44.1718C64.5602 41.0656 65.3953 37.6658 65.6284 34.6452C65.8566 31.687 65.5201 28.7725 64.26 27.0738L63.9397 27.8069Z" fill="#F0D6E5" mask="url(#path-16-inside-8_20_24)"/>
<path d="M24.7709 38.3244C24.3869 38.3264 24.0746 38.0786 24.0729 37.7705C24.0713 37.4629 24.3809 37.2112 24.765 37.2091L30.5624 37.178L31.6283 35.3551C31.7905 35.0765 32.2029 34.9549 32.5498 35.0844C32.7085 35.1431 32.8333 35.2481 32.8989 35.3781L34.2091 37.6342L36.7002 24.5885C36.7567 24.285 37.1092 24.0753 37.4874 24.12C37.8094 24.1584 38.0458 24.3692 38.0742 24.618L38.0763 24.618L40.1242 42.5088L42.3114 31.4149C42.3713 31.1114 42.7265 30.9039 43.1047 30.9512C43.4024 30.9881 43.6258 31.173 43.6777 31.3978L45.783 40.1839L48.3627 35.2203C48.5093 34.9363 48.9149 34.8018 49.2678 34.9187C49.4358 34.9747 49.5614 35.0777 49.6317 35.2004L49.633 35.1999L50.6951 37.0699L57.9908 37.0308C58.3748 37.0287 58.6872 37.2771 58.6888 37.5847C58.6905 37.8928 58.3808 38.144 57.9968 38.146L50.2535 38.1876L50.2535 38.1865C49.9892 38.1879 49.7356 38.0672 49.6189 37.8623L49.0285 36.8223L46.1891 42.2864C46.1089 42.4659 45.9163 42.6079 45.6664 42.6473C45.2908 42.7057 44.9273 42.5086 44.8554 42.2073L43.0621 34.7236L40.6327 47.0448C40.605 47.3096 40.3439 47.5286 40.0032 47.5537C39.6214 47.5823 39.2835 47.3569 39.2487 47.0506L37.2107 29.2465L35.2332 39.601C35.2044 39.7845 35.062 39.9523 34.8366 40.036C34.4898 40.1653 34.0781 40.045 33.9177 39.767L32.2546 36.9015L31.6517 37.9327C31.6013 38.0375 31.5128 38.1279 31.3975 38.1918C31.2823 38.2557 31.1458 38.2902 31.0059 38.2909L24.7709 38.3244Z" fill="#6D0951"/>
</svg>
